<mxfile host="app.diagrams.net" agent="Mozilla/5.0 (Windows NT 10.0; Win64; x64) AppleWebKit/537.36 (KHTML, like Gecko) Chrome/136.0.0.0 Safari/537.36" version="26.2.9">
  <diagram name="第 1 页" id="a_NviNxf5GWXDMCuoll3">
    <mxGraphModel dx="1002" dy="677" grid="1" gridSize="10" guides="1" tooltips="1" connect="1" arrows="1" fold="1" page="1" pageScale="1" pageWidth="827" pageHeight="1169" math="0" shadow="0">
      <root>
        <mxCell id="0" />
        <mxCell id="1" parent="0" />
        <mxCell id="Cig8O3BViA_v4k6TZfGV-1" style="rounded=0;orthogonalLoop=1;jettySize=auto;html=1;entryX=0;entryY=0.5;entryDx=0;entryDy=0;strokeColor=default;endArrow=none;startFill=0;exitX=1;exitY=0.25;exitDx=0;exitDy=0;edgeStyle=orthogonalEdgeStyle;fontSize=10;fontStyle=1" parent="1" source="Cig8O3BViA_v4k6TZfGV-10" target="Cig8O3BViA_v4k6TZfGV-22" edge="1">
          <mxGeometry relative="1" as="geometry" />
        </mxCell>
        <mxCell id="Cig8O3BViA_v4k6TZfGV-2" style="edgeStyle=orthogonalEdgeStyle;shape=connector;rounded=0;orthogonalLoop=1;jettySize=auto;html=1;exitX=0.5;exitY=0;exitDx=0;exitDy=0;entryX=0.5;entryY=1;entryDx=0;entryDy=0;strokeColor=default;align=center;verticalAlign=middle;fontFamily=Helvetica;fontSize=11;fontColor=default;labelBackgroundColor=default;startFill=0;endArrow=none;fontStyle=1" parent="1" source="Cig8O3BViA_v4k6TZfGV-10" target="Cig8O3BViA_v4k6TZfGV-56" edge="1">
          <mxGeometry relative="1" as="geometry">
            <Array as="points">
              <mxPoint x="500" y="130" />
              <mxPoint x="255" y="130" />
            </Array>
          </mxGeometry>
        </mxCell>
        <mxCell id="Cig8O3BViA_v4k6TZfGV-3" style="edgeStyle=orthogonalEdgeStyle;shape=connector;rounded=0;orthogonalLoop=1;jettySize=auto;html=1;exitX=0.5;exitY=0;exitDx=0;exitDy=0;entryX=0.5;entryY=1;entryDx=0;entryDy=0;strokeColor=default;align=center;verticalAlign=middle;fontFamily=Helvetica;fontSize=11;fontColor=default;labelBackgroundColor=default;startFill=0;endArrow=none;fontStyle=1" parent="1" source="Cig8O3BViA_v4k6TZfGV-10" target="Cig8O3BViA_v4k6TZfGV-57" edge="1">
          <mxGeometry relative="1" as="geometry">
            <Array as="points">
              <mxPoint x="500" y="130" />
              <mxPoint x="325" y="130" />
            </Array>
          </mxGeometry>
        </mxCell>
        <mxCell id="Cig8O3BViA_v4k6TZfGV-4" style="edgeStyle=orthogonalEdgeStyle;shape=connector;rounded=0;orthogonalLoop=1;jettySize=auto;html=1;exitX=0.5;exitY=0;exitDx=0;exitDy=0;entryX=0.5;entryY=1;entryDx=0;entryDy=0;strokeColor=default;align=center;verticalAlign=middle;fontFamily=Helvetica;fontSize=11;fontColor=default;labelBackgroundColor=default;startFill=0;endArrow=none;fontStyle=1" parent="1" source="Cig8O3BViA_v4k6TZfGV-10" target="Cig8O3BViA_v4k6TZfGV-58" edge="1">
          <mxGeometry relative="1" as="geometry">
            <Array as="points">
              <mxPoint x="500" y="130" />
              <mxPoint x="395" y="130" />
            </Array>
          </mxGeometry>
        </mxCell>
        <mxCell id="Cig8O3BViA_v4k6TZfGV-5" style="edgeStyle=orthogonalEdgeStyle;shape=connector;rounded=0;orthogonalLoop=1;jettySize=auto;html=1;exitX=0.5;exitY=0;exitDx=0;exitDy=0;entryX=0.5;entryY=1;entryDx=0;entryDy=0;strokeColor=default;align=center;verticalAlign=middle;fontFamily=Helvetica;fontSize=11;fontColor=default;labelBackgroundColor=default;startFill=0;endArrow=none;fontStyle=1" parent="1" source="Cig8O3BViA_v4k6TZfGV-10" target="Cig8O3BViA_v4k6TZfGV-59" edge="1">
          <mxGeometry relative="1" as="geometry">
            <Array as="points">
              <mxPoint x="500" y="130" />
              <mxPoint x="465" y="130" />
            </Array>
          </mxGeometry>
        </mxCell>
        <mxCell id="Cig8O3BViA_v4k6TZfGV-6" style="edgeStyle=orthogonalEdgeStyle;shape=connector;rounded=0;orthogonalLoop=1;jettySize=auto;html=1;exitX=0.5;exitY=0;exitDx=0;exitDy=0;entryX=0.5;entryY=1;entryDx=0;entryDy=0;strokeColor=default;align=center;verticalAlign=middle;fontFamily=Helvetica;fontSize=11;fontColor=default;labelBackgroundColor=default;startFill=0;endArrow=none;fontStyle=1" parent="1" source="Cig8O3BViA_v4k6TZfGV-10" target="Cig8O3BViA_v4k6TZfGV-60" edge="1">
          <mxGeometry relative="1" as="geometry">
            <Array as="points">
              <mxPoint x="500" y="130" />
              <mxPoint x="535" y="130" />
            </Array>
          </mxGeometry>
        </mxCell>
        <mxCell id="Cig8O3BViA_v4k6TZfGV-7" style="edgeStyle=orthogonalEdgeStyle;shape=connector;rounded=0;orthogonalLoop=1;jettySize=auto;html=1;exitX=0.5;exitY=0;exitDx=0;exitDy=0;entryX=0.5;entryY=1;entryDx=0;entryDy=0;strokeColor=default;align=center;verticalAlign=middle;fontFamily=Helvetica;fontSize=11;fontColor=default;labelBackgroundColor=default;startFill=0;endArrow=none;fontStyle=1" parent="1" source="Cig8O3BViA_v4k6TZfGV-10" target="Cig8O3BViA_v4k6TZfGV-61" edge="1">
          <mxGeometry relative="1" as="geometry">
            <Array as="points">
              <mxPoint x="500" y="130" />
              <mxPoint x="605" y="130" />
            </Array>
          </mxGeometry>
        </mxCell>
        <mxCell id="Cig8O3BViA_v4k6TZfGV-8" style="edgeStyle=orthogonalEdgeStyle;shape=connector;rounded=0;orthogonalLoop=1;jettySize=auto;html=1;exitX=0.5;exitY=0;exitDx=0;exitDy=0;entryX=0.5;entryY=1;entryDx=0;entryDy=0;strokeColor=default;align=center;verticalAlign=middle;fontFamily=Helvetica;fontSize=11;fontColor=default;labelBackgroundColor=default;startFill=0;endArrow=none;fontStyle=1" parent="1" source="Cig8O3BViA_v4k6TZfGV-10" target="Cig8O3BViA_v4k6TZfGV-63" edge="1">
          <mxGeometry relative="1" as="geometry">
            <Array as="points">
              <mxPoint x="500" y="130" />
              <mxPoint x="675" y="130" />
            </Array>
          </mxGeometry>
        </mxCell>
        <mxCell id="Cig8O3BViA_v4k6TZfGV-9" style="edgeStyle=orthogonalEdgeStyle;shape=connector;rounded=0;orthogonalLoop=1;jettySize=auto;html=1;exitX=0.5;exitY=0;exitDx=0;exitDy=0;entryX=0.5;entryY=1;entryDx=0;entryDy=0;strokeColor=default;align=center;verticalAlign=middle;fontFamily=Helvetica;fontSize=11;fontColor=default;labelBackgroundColor=default;startFill=0;endArrow=none;fontStyle=1" parent="1" source="Cig8O3BViA_v4k6TZfGV-10" target="Cig8O3BViA_v4k6TZfGV-62" edge="1">
          <mxGeometry relative="1" as="geometry">
            <Array as="points">
              <mxPoint x="500" y="130" />
              <mxPoint x="745" y="130" />
            </Array>
          </mxGeometry>
        </mxCell>
        <mxCell id="Cig8O3BViA_v4k6TZfGV-10" value="&lt;font style=&quot;font-size: 16px;&quot;&gt;用户&lt;/font&gt;" style="whiteSpace=wrap;html=1;align=center;fontSize=10;textShadow=1;fontStyle=1" parent="1" vertex="1">
          <mxGeometry x="460" y="180" width="80" height="40" as="geometry" />
        </mxCell>
        <mxCell id="Cig8O3BViA_v4k6TZfGV-11" style="edgeStyle=orthogonalEdgeStyle;shape=connector;rounded=0;orthogonalLoop=1;jettySize=auto;html=1;exitX=1;exitY=0.5;exitDx=0;exitDy=0;entryX=0;entryY=0.5;entryDx=0;entryDy=0;strokeColor=default;align=center;verticalAlign=middle;fontFamily=Helvetica;fontSize=10;fontColor=default;labelBackgroundColor=default;startFill=0;endArrow=none;fontStyle=1" parent="1" source="Cig8O3BViA_v4k6TZfGV-16" target="Cig8O3BViA_v4k6TZfGV-24" edge="1">
          <mxGeometry relative="1" as="geometry" />
        </mxCell>
        <mxCell id="Cig8O3BViA_v4k6TZfGV-12" style="edgeStyle=orthogonalEdgeStyle;shape=connector;rounded=0;orthogonalLoop=1;jettySize=auto;html=1;exitX=0.5;exitY=0;exitDx=0;exitDy=0;entryX=0.5;entryY=1;entryDx=0;entryDy=0;strokeColor=default;align=center;verticalAlign=middle;fontFamily=Helvetica;fontSize=11;fontColor=default;labelBackgroundColor=default;startFill=0;endArrow=none;fontStyle=1" parent="1" source="Cig8O3BViA_v4k6TZfGV-16" target="Cig8O3BViA_v4k6TZfGV-65" edge="1">
          <mxGeometry relative="1" as="geometry" />
        </mxCell>
        <mxCell id="Cig8O3BViA_v4k6TZfGV-13" style="edgeStyle=orthogonalEdgeStyle;shape=connector;rounded=0;orthogonalLoop=1;jettySize=auto;html=1;exitX=0.5;exitY=0;exitDx=0;exitDy=0;entryX=0.5;entryY=1;entryDx=0;entryDy=0;strokeColor=default;align=center;verticalAlign=middle;fontFamily=Helvetica;fontSize=11;fontColor=default;labelBackgroundColor=default;startFill=0;endArrow=none;fontStyle=1" parent="1" source="Cig8O3BViA_v4k6TZfGV-16" target="Cig8O3BViA_v4k6TZfGV-64" edge="1">
          <mxGeometry relative="1" as="geometry">
            <Array as="points">
              <mxPoint x="860" y="130" />
              <mxPoint x="930" y="130" />
            </Array>
          </mxGeometry>
        </mxCell>
        <mxCell id="Cig8O3BViA_v4k6TZfGV-14" style="edgeStyle=orthogonalEdgeStyle;shape=connector;rounded=0;orthogonalLoop=1;jettySize=auto;html=1;exitX=0.5;exitY=0;exitDx=0;exitDy=0;entryX=0.5;entryY=1;entryDx=0;entryDy=0;strokeColor=default;align=center;verticalAlign=middle;fontFamily=Helvetica;fontSize=11;fontColor=default;labelBackgroundColor=default;startFill=0;endArrow=none;fontStyle=1" parent="1" source="Cig8O3BViA_v4k6TZfGV-16" target="Cig8O3BViA_v4k6TZfGV-66" edge="1">
          <mxGeometry relative="1" as="geometry">
            <Array as="points">
              <mxPoint x="860" y="130" />
              <mxPoint x="1000" y="130" />
            </Array>
          </mxGeometry>
        </mxCell>
        <mxCell id="Cig8O3BViA_v4k6TZfGV-15" style="edgeStyle=orthogonalEdgeStyle;shape=connector;rounded=0;orthogonalLoop=1;jettySize=auto;html=1;exitX=0.5;exitY=0;exitDx=0;exitDy=0;entryX=0.5;entryY=1;entryDx=0;entryDy=0;strokeColor=default;align=center;verticalAlign=middle;fontFamily=Helvetica;fontSize=11;fontColor=default;labelBackgroundColor=default;startFill=0;endArrow=none;fontStyle=1" parent="1" source="Cig8O3BViA_v4k6TZfGV-16" target="Cig8O3BViA_v4k6TZfGV-67" edge="1">
          <mxGeometry relative="1" as="geometry">
            <Array as="points">
              <mxPoint x="860" y="130" />
              <mxPoint x="1070" y="130" />
            </Array>
          </mxGeometry>
        </mxCell>
        <mxCell id="Cig8O3BViA_v4k6TZfGV-16" value="&lt;font style=&quot;font-size: 16px;&quot;&gt;视频&lt;/font&gt;" style="whiteSpace=wrap;html=1;align=center;fontSize=10;textShadow=1;fontStyle=1" parent="1" vertex="1">
          <mxGeometry x="820" y="180" width="80" height="40" as="geometry" />
        </mxCell>
        <mxCell id="Cig8O3BViA_v4k6TZfGV-17" style="edgeStyle=orthogonalEdgeStyle;shape=connector;rounded=0;orthogonalLoop=1;jettySize=auto;html=1;exitX=0.25;exitY=1;exitDx=0;exitDy=0;entryX=0;entryY=1;entryDx=0;entryDy=0;strokeColor=default;align=center;verticalAlign=middle;fontFamily=Helvetica;fontSize=10;fontColor=default;labelBackgroundColor=default;startFill=0;endArrow=none;fontStyle=1" parent="1" source="Cig8O3BViA_v4k6TZfGV-19" target="Cig8O3BViA_v4k6TZfGV-27" edge="1">
          <mxGeometry relative="1" as="geometry" />
        </mxCell>
        <mxCell id="Cig8O3BViA_v4k6TZfGV-18" value="子分区" style="edgeLabel;html=1;align=center;verticalAlign=middle;resizable=0;points=[];strokeColor=default;fontFamily=Helvetica;fontSize=11;fontColor=default;labelBackgroundColor=none;fillColor=default;textDirection=vertical-lr;fontStyle=1" parent="Cig8O3BViA_v4k6TZfGV-17" vertex="1" connectable="0">
          <mxGeometry x="-0.2054" y="1" relative="1" as="geometry">
            <mxPoint x="-13" as="offset" />
          </mxGeometry>
        </mxCell>
        <mxCell id="Cig8O3BViA_v4k6TZfGV-19" value="&lt;font style=&quot;font-size: 16px;&quot;&gt;分区&lt;/font&gt;" style="whiteSpace=wrap;html=1;align=center;fontFamily=Helvetica;fontSize=10;textShadow=1;fontStyle=1" parent="1" vertex="1">
          <mxGeometry x="960" y="280" width="80" height="40" as="geometry" />
        </mxCell>
        <mxCell id="Cig8O3BViA_v4k6TZfGV-20" value="&lt;font style=&quot;font-size: 16px;&quot;&gt;消息&lt;/font&gt;" style="whiteSpace=wrap;html=1;align=center;fontSize=10;textShadow=1;fontStyle=1" parent="1" vertex="1">
          <mxGeometry x="219" y="180" width="80" height="40" as="geometry" />
        </mxCell>
        <mxCell id="Cig8O3BViA_v4k6TZfGV-21" style="edgeStyle=orthogonalEdgeStyle;rounded=0;orthogonalLoop=1;jettySize=auto;html=1;entryX=0;entryY=0.25;entryDx=0;entryDy=0;endArrow=none;startFill=0;fontSize=10;fontStyle=1" parent="1" source="Cig8O3BViA_v4k6TZfGV-22" target="Cig8O3BViA_v4k6TZfGV-16" edge="1">
          <mxGeometry relative="1" as="geometry" />
        </mxCell>
        <mxCell id="Cig8O3BViA_v4k6TZfGV-22" value="投稿视频" style="shape=rhombus;perimeter=rhombusPerimeter;whiteSpace=wrap;html=1;align=center;fontSize=10;fontStyle=1" parent="1" vertex="1">
          <mxGeometry x="640" y="150" width="80" height="40" as="geometry" />
        </mxCell>
        <mxCell id="Cig8O3BViA_v4k6TZfGV-23" style="edgeStyle=orthogonalEdgeStyle;shape=connector;rounded=0;orthogonalLoop=1;jettySize=auto;html=1;strokeColor=default;align=center;verticalAlign=middle;fontFamily=Helvetica;fontSize=10;fontColor=default;labelBackgroundColor=default;startFill=0;endArrow=none;fontStyle=1" parent="1" source="Cig8O3BViA_v4k6TZfGV-24" target="Cig8O3BViA_v4k6TZfGV-19" edge="1">
          <mxGeometry relative="1" as="geometry" />
        </mxCell>
        <mxCell id="Cig8O3BViA_v4k6TZfGV-24" value="视频分区" style="shape=rhombus;perimeter=rhombusPerimeter;whiteSpace=wrap;html=1;align=center;fontFamily=Helvetica;fontSize=10;fontColor=default;labelBackgroundColor=default;fontStyle=1" parent="1" vertex="1">
          <mxGeometry x="960" y="180" width="80" height="40" as="geometry" />
        </mxCell>
        <mxCell id="Cig8O3BViA_v4k6TZfGV-25" style="edgeStyle=orthogonalEdgeStyle;shape=connector;rounded=0;orthogonalLoop=1;jettySize=auto;html=1;exitX=1;exitY=0;exitDx=0;exitDy=0;entryX=0.75;entryY=1;entryDx=0;entryDy=0;strokeColor=default;align=center;verticalAlign=middle;fontFamily=Helvetica;fontSize=10;fontColor=default;labelBackgroundColor=default;startFill=0;endArrow=classic;endFill=1;fontStyle=1" parent="1" source="Cig8O3BViA_v4k6TZfGV-27" target="Cig8O3BViA_v4k6TZfGV-19" edge="1">
          <mxGeometry relative="1" as="geometry" />
        </mxCell>
        <mxCell id="Cig8O3BViA_v4k6TZfGV-26" value="父分区" style="edgeLabel;html=1;align=center;verticalAlign=middle;resizable=0;points=[];strokeColor=default;fontFamily=Helvetica;fontSize=11;fontColor=default;labelBackgroundColor=none;fillColor=default;textDirection=vertical-lr;fontStyle=1" parent="Cig8O3BViA_v4k6TZfGV-25" vertex="1" connectable="0">
          <mxGeometry x="0.1557" y="1" relative="1" as="geometry">
            <mxPoint x="9" y="8" as="offset" />
          </mxGeometry>
        </mxCell>
        <mxCell id="Cig8O3BViA_v4k6TZfGV-27" value="分区所属" style="shape=rhombus;perimeter=rhombusPerimeter;whiteSpace=wrap;html=1;align=center;fontFamily=Helvetica;fontSize=10;fontColor=default;labelBackgroundColor=default;fontStyle=1" parent="1" vertex="1">
          <mxGeometry x="960" y="380" width="80" height="40" as="geometry" />
        </mxCell>
        <mxCell id="Cig8O3BViA_v4k6TZfGV-28" style="edgeStyle=orthogonalEdgeStyle;shape=connector;rounded=0;orthogonalLoop=1;jettySize=auto;html=1;exitX=0;exitY=0.5;exitDx=0;exitDy=0;entryX=1;entryY=0.75;entryDx=0;entryDy=0;strokeColor=default;align=center;verticalAlign=middle;fontFamily=Helvetica;fontSize=10;fontColor=default;labelBackgroundColor=default;startFill=0;endArrow=none;fontStyle=1" parent="1" source="Cig8O3BViA_v4k6TZfGV-30" target="Cig8O3BViA_v4k6TZfGV-10" edge="1">
          <mxGeometry relative="1" as="geometry" />
        </mxCell>
        <mxCell id="Cig8O3BViA_v4k6TZfGV-29" style="edgeStyle=orthogonalEdgeStyle;shape=connector;rounded=0;orthogonalLoop=1;jettySize=auto;html=1;entryX=0;entryY=0.75;entryDx=0;entryDy=0;strokeColor=default;align=center;verticalAlign=middle;fontFamily=Helvetica;fontSize=10;fontColor=default;labelBackgroundColor=default;startFill=0;endArrow=none;fontStyle=1" parent="1" source="Cig8O3BViA_v4k6TZfGV-30" target="Cig8O3BViA_v4k6TZfGV-16" edge="1">
          <mxGeometry relative="1" as="geometry" />
        </mxCell>
        <mxCell id="Cig8O3BViA_v4k6TZfGV-30" value="点赞视频" style="shape=rhombus;perimeter=rhombusPerimeter;whiteSpace=wrap;html=1;align=center;fontFamily=Helvetica;fontSize=10;fontColor=default;labelBackgroundColor=default;fontStyle=1" parent="1" vertex="1">
          <mxGeometry x="640" y="210" width="80" height="40" as="geometry" />
        </mxCell>
        <mxCell id="Cig8O3BViA_v4k6TZfGV-31" style="edgeStyle=orthogonalEdgeStyle;shape=connector;rounded=0;orthogonalLoop=1;jettySize=auto;html=1;exitX=1;exitY=0.5;exitDx=0;exitDy=0;entryX=0;entryY=0.5;entryDx=0;entryDy=0;strokeColor=default;align=center;verticalAlign=middle;fontFamily=Helvetica;fontSize=10;fontColor=default;labelBackgroundColor=default;startFill=0;endArrow=none;fontStyle=1" parent="1" source="Cig8O3BViA_v4k6TZfGV-33" target="Cig8O3BViA_v4k6TZfGV-49" edge="1">
          <mxGeometry relative="1" as="geometry">
            <mxPoint x="640" y="280" as="targetPoint" />
          </mxGeometry>
        </mxCell>
        <mxCell id="Cig8O3BViA_v4k6TZfGV-32" style="edgeStyle=orthogonalEdgeStyle;shape=connector;rounded=0;orthogonalLoop=1;jettySize=auto;html=1;entryX=0.75;entryY=1;entryDx=0;entryDy=0;strokeColor=default;align=center;verticalAlign=middle;fontFamily=Helvetica;fontSize=10;fontColor=default;labelBackgroundColor=default;startFill=0;endArrow=classic;endFill=1;exitX=0;exitY=0.5;exitDx=0;exitDy=0;fontStyle=1" parent="1" source="Cig8O3BViA_v4k6TZfGV-33" target="Cig8O3BViA_v4k6TZfGV-10" edge="1">
          <mxGeometry relative="1" as="geometry" />
        </mxCell>
        <mxCell id="Cig8O3BViA_v4k6TZfGV-33" value="发送弹幕" style="shape=rhombus;perimeter=rhombusPerimeter;whiteSpace=wrap;html=1;align=center;fontFamily=Helvetica;fontSize=10;fontColor=default;labelBackgroundColor=default;aspect=fixed;fontStyle=1" parent="1" vertex="1">
          <mxGeometry x="540" y="260" width="80" height="40" as="geometry" />
        </mxCell>
        <mxCell id="Cig8O3BViA_v4k6TZfGV-34" style="edgeStyle=orthogonalEdgeStyle;shape=connector;rounded=0;orthogonalLoop=1;jettySize=auto;html=1;entryX=0;entryY=0.5;entryDx=0;entryDy=0;strokeColor=default;align=center;verticalAlign=middle;fontFamily=Helvetica;fontSize=10;fontColor=default;labelBackgroundColor=default;startFill=0;endArrow=none;fontStyle=1" parent="1" source="Cig8O3BViA_v4k6TZfGV-36" target="Cig8O3BViA_v4k6TZfGV-53" edge="1">
          <mxGeometry relative="1" as="geometry">
            <mxPoint x="640" y="440" as="targetPoint" />
          </mxGeometry>
        </mxCell>
        <mxCell id="Cig8O3BViA_v4k6TZfGV-35" style="edgeStyle=orthogonalEdgeStyle;shape=connector;rounded=0;orthogonalLoop=1;jettySize=auto;html=1;entryX=0.25;entryY=1;entryDx=0;entryDy=0;strokeColor=default;align=center;verticalAlign=middle;fontFamily=Helvetica;fontSize=10;fontColor=default;labelBackgroundColor=default;startFill=0;endArrow=classic;endFill=1;fontStyle=1" parent="1" source="Cig8O3BViA_v4k6TZfGV-36" target="Cig8O3BViA_v4k6TZfGV-10" edge="1">
          <mxGeometry relative="1" as="geometry" />
        </mxCell>
        <mxCell id="Cig8O3BViA_v4k6TZfGV-36" value="发送评论" style="shape=rhombus;perimeter=rhombusPerimeter;whiteSpace=wrap;html=1;align=center;fontFamily=Helvetica;fontSize=10;fontColor=default;labelBackgroundColor=default;perimeterSpacing=0;fontStyle=1" parent="1" vertex="1">
          <mxGeometry x="440" y="420" width="80" height="40" as="geometry" />
        </mxCell>
        <mxCell id="Cig8O3BViA_v4k6TZfGV-37" style="edgeStyle=orthogonalEdgeStyle;shape=connector;rounded=0;orthogonalLoop=1;jettySize=auto;html=1;exitX=0;exitY=0;exitDx=0;exitDy=0;entryX=0.25;entryY=1;entryDx=0;entryDy=0;strokeColor=default;align=center;verticalAlign=middle;fontFamily=Helvetica;fontSize=10;fontColor=default;labelBackgroundColor=default;startFill=0;endArrow=none;fontStyle=1" parent="1" source="Cig8O3BViA_v4k6TZfGV-41" target="Cig8O3BViA_v4k6TZfGV-53" edge="1">
          <mxGeometry relative="1" as="geometry" />
        </mxCell>
        <mxCell id="Cig8O3BViA_v4k6TZfGV-38" value="评论对象" style="edgeLabel;html=1;align=center;verticalAlign=middle;resizable=0;points=[];strokeColor=default;fontFamily=Helvetica;fontSize=11;fontColor=default;labelBackgroundColor=none;fillColor=default;textDirection=vertical-lr;fontStyle=1" parent="Cig8O3BViA_v4k6TZfGV-37" vertex="1" connectable="0">
          <mxGeometry x="0.1214" y="-2" relative="1" as="geometry">
            <mxPoint x="-13" y="2" as="offset" />
          </mxGeometry>
        </mxCell>
        <mxCell id="Cig8O3BViA_v4k6TZfGV-39" style="edgeStyle=orthogonalEdgeStyle;shape=connector;rounded=0;orthogonalLoop=1;jettySize=auto;html=1;exitX=1;exitY=0;exitDx=0;exitDy=0;entryX=0.75;entryY=1;entryDx=0;entryDy=0;strokeColor=default;align=center;verticalAlign=middle;fontFamily=Helvetica;fontSize=10;fontColor=default;labelBackgroundColor=default;startFill=0;endArrow=classic;endFill=1;fontStyle=1" parent="1" source="Cig8O3BViA_v4k6TZfGV-41" target="Cig8O3BViA_v4k6TZfGV-53" edge="1">
          <mxGeometry relative="1" as="geometry" />
        </mxCell>
        <mxCell id="Cig8O3BViA_v4k6TZfGV-40" value="被评论对象" style="edgeLabel;html=1;align=center;verticalAlign=middle;resizable=0;points=[];strokeColor=default;fontFamily=Helvetica;fontSize=11;fontColor=default;labelBackgroundColor=none;fillColor=default;textDirection=vertical-lr;fontStyle=1" parent="Cig8O3BViA_v4k6TZfGV-39" vertex="1" connectable="0">
          <mxGeometry x="0.3133" y="-2" relative="1" as="geometry">
            <mxPoint x="6" y="13" as="offset" />
          </mxGeometry>
        </mxCell>
        <mxCell id="Cig8O3BViA_v4k6TZfGV-41" value="评论对象" style="shape=rhombus;perimeter=rhombusPerimeter;whiteSpace=wrap;html=1;align=center;strokeColor=default;verticalAlign=middle;fontFamily=Helvetica;fontSize=10;fontColor=default;labelBackgroundColor=default;fillColor=default;fontStyle=1" parent="1" vertex="1">
          <mxGeometry x="640" y="520" width="80" height="40" as="geometry" />
        </mxCell>
        <mxCell id="Cig8O3BViA_v4k6TZfGV-42" style="edgeStyle=orthogonalEdgeStyle;shape=connector;rounded=0;orthogonalLoop=1;jettySize=auto;html=1;exitX=1;exitY=0.5;exitDx=0;exitDy=0;entryX=0;entryY=0.25;entryDx=0;entryDy=0;strokeColor=default;align=center;verticalAlign=middle;fontFamily=Helvetica;fontSize=10;fontColor=default;labelBackgroundColor=default;startFill=0;endArrow=classic;endFill=1;fontStyle=1" parent="1" source="Cig8O3BViA_v4k6TZfGV-44" target="Cig8O3BViA_v4k6TZfGV-10" edge="1">
          <mxGeometry relative="1" as="geometry" />
        </mxCell>
        <mxCell id="Cig8O3BViA_v4k6TZfGV-43" style="edgeStyle=orthogonalEdgeStyle;shape=connector;rounded=0;orthogonalLoop=1;jettySize=auto;html=1;exitX=0;exitY=0.5;exitDx=0;exitDy=0;entryX=1;entryY=0.25;entryDx=0;entryDy=0;strokeColor=default;align=center;verticalAlign=middle;fontFamily=Helvetica;fontSize=10;fontColor=default;labelBackgroundColor=default;startFill=0;endArrow=none;fontStyle=1" parent="1" source="Cig8O3BViA_v4k6TZfGV-44" target="Cig8O3BViA_v4k6TZfGV-20" edge="1">
          <mxGeometry relative="1" as="geometry" />
        </mxCell>
        <mxCell id="Cig8O3BViA_v4k6TZfGV-44" value="发送消息" style="shape=rhombus;perimeter=rhombusPerimeter;whiteSpace=wrap;html=1;align=center;strokeColor=default;verticalAlign=middle;fontFamily=Helvetica;fontSize=10;fontColor=default;labelBackgroundColor=default;fillColor=default;fontStyle=1" parent="1" vertex="1">
          <mxGeometry x="340" y="150" width="80" height="40" as="geometry" />
        </mxCell>
        <mxCell id="Cig8O3BViA_v4k6TZfGV-45" style="edgeStyle=orthogonalEdgeStyle;shape=connector;rounded=0;orthogonalLoop=1;jettySize=auto;html=1;exitX=0;exitY=0.5;exitDx=0;exitDy=0;entryX=1;entryY=0.75;entryDx=0;entryDy=0;strokeColor=default;align=center;verticalAlign=middle;fontFamily=Helvetica;fontSize=10;fontColor=default;labelBackgroundColor=default;startFill=0;endArrow=none;fontStyle=1" parent="1" source="Cig8O3BViA_v4k6TZfGV-47" target="Cig8O3BViA_v4k6TZfGV-20" edge="1">
          <mxGeometry relative="1" as="geometry" />
        </mxCell>
        <mxCell id="Cig8O3BViA_v4k6TZfGV-46" style="edgeStyle=orthogonalEdgeStyle;shape=connector;rounded=0;orthogonalLoop=1;jettySize=auto;html=1;exitX=1;exitY=0.5;exitDx=0;exitDy=0;entryX=0;entryY=0.75;entryDx=0;entryDy=0;strokeColor=default;align=center;verticalAlign=middle;fontFamily=Helvetica;fontSize=10;fontColor=default;labelBackgroundColor=default;startFill=0;endArrow=classic;endFill=1;fontStyle=1" parent="1" source="Cig8O3BViA_v4k6TZfGV-47" target="Cig8O3BViA_v4k6TZfGV-10" edge="1">
          <mxGeometry relative="1" as="geometry" />
        </mxCell>
        <mxCell id="Cig8O3BViA_v4k6TZfGV-47" value="接收消息" style="shape=rhombus;perimeter=rhombusPerimeter;whiteSpace=wrap;html=1;align=center;strokeColor=default;verticalAlign=middle;fontFamily=Helvetica;fontSize=10;fontColor=default;labelBackgroundColor=default;fillColor=default;fontStyle=1" parent="1" vertex="1">
          <mxGeometry x="340" y="210" width="80" height="40" as="geometry" />
        </mxCell>
        <mxCell id="Cig8O3BViA_v4k6TZfGV-48" style="edgeStyle=orthogonalEdgeStyle;shape=link;rounded=0;orthogonalLoop=1;jettySize=auto;html=1;exitX=1;exitY=0.5;exitDx=0;exitDy=0;entryX=0;entryY=0.5;entryDx=0;entryDy=0;strokeColor=default;align=center;verticalAlign=middle;fontFamily=Helvetica;fontSize=10;fontColor=default;labelBackgroundColor=default;startFill=0;endArrow=none;fontStyle=1" parent="1" source="Cig8O3BViA_v4k6TZfGV-49" target="Cig8O3BViA_v4k6TZfGV-51" edge="1">
          <mxGeometry relative="1" as="geometry" />
        </mxCell>
        <mxCell id="Cig8O3BViA_v4k6TZfGV-49" value="&lt;font style=&quot;font-size: 16px;&quot;&gt;弹幕&lt;/font&gt;" style="shape=ext;margin=3;double=1;whiteSpace=wrap;html=1;align=center;strokeColor=default;verticalAlign=middle;fontFamily=Helvetica;fontSize=10;fontColor=default;labelBackgroundColor=default;fillColor=default;fontStyle=1" parent="1" vertex="1">
          <mxGeometry x="640" y="260" width="80" height="40" as="geometry" />
        </mxCell>
        <mxCell id="Cig8O3BViA_v4k6TZfGV-50" style="edgeStyle=orthogonalEdgeStyle;shape=connector;rounded=0;orthogonalLoop=1;jettySize=auto;html=1;exitX=1;exitY=0.5;exitDx=0;exitDy=0;entryX=0.25;entryY=1;entryDx=0;entryDy=0;strokeColor=default;align=center;verticalAlign=middle;fontFamily=Helvetica;fontSize=11;fontColor=default;labelBackgroundColor=default;startFill=0;endArrow=classic;endFill=1;fontStyle=1" parent="1" source="Cig8O3BViA_v4k6TZfGV-51" target="Cig8O3BViA_v4k6TZfGV-16" edge="1">
          <mxGeometry relative="1" as="geometry" />
        </mxCell>
        <mxCell id="Cig8O3BViA_v4k6TZfGV-51" value="弹幕所属" style="shape=rhombus;double=1;perimeter=rhombusPerimeter;whiteSpace=wrap;html=1;align=center;strokeColor=default;verticalAlign=middle;fontFamily=Helvetica;fontSize=10;fontColor=default;labelBackgroundColor=default;fillColor=default;fontStyle=1" parent="1" vertex="1">
          <mxGeometry x="740" y="260" width="80" height="40" as="geometry" />
        </mxCell>
        <mxCell id="Cig8O3BViA_v4k6TZfGV-52" style="edgeStyle=orthogonalEdgeStyle;shape=link;rounded=0;orthogonalLoop=1;jettySize=auto;html=1;exitX=1;exitY=0.5;exitDx=0;exitDy=0;entryX=0;entryY=0.5;entryDx=0;entryDy=0;strokeColor=default;align=center;verticalAlign=middle;fontFamily=Helvetica;fontSize=10;fontColor=default;labelBackgroundColor=default;startFill=0;endArrow=none;fontStyle=1" parent="1" source="Cig8O3BViA_v4k6TZfGV-53" target="Cig8O3BViA_v4k6TZfGV-55" edge="1">
          <mxGeometry relative="1" as="geometry" />
        </mxCell>
        <mxCell id="Cig8O3BViA_v4k6TZfGV-53" value="&lt;font style=&quot;font-size: 16px;&quot;&gt;评论&lt;/font&gt;" style="shape=ext;margin=3;double=1;whiteSpace=wrap;html=1;align=center;strokeColor=default;verticalAlign=middle;fontFamily=Helvetica;fontSize=10;fontColor=default;labelBackgroundColor=default;fillColor=default;fontStyle=1" parent="1" vertex="1">
          <mxGeometry x="640" y="420" width="80" height="40" as="geometry" />
        </mxCell>
        <mxCell id="Cig8O3BViA_v4k6TZfGV-54" style="edgeStyle=orthogonalEdgeStyle;shape=connector;rounded=0;orthogonalLoop=1;jettySize=auto;html=1;entryX=0.75;entryY=1;entryDx=0;entryDy=0;strokeColor=default;align=center;verticalAlign=middle;fontFamily=Helvetica;fontSize=11;fontColor=default;labelBackgroundColor=default;startFill=0;endArrow=classic;endFill=1;fontStyle=1" parent="1" source="Cig8O3BViA_v4k6TZfGV-55" target="Cig8O3BViA_v4k6TZfGV-16" edge="1">
          <mxGeometry relative="1" as="geometry" />
        </mxCell>
        <mxCell id="Cig8O3BViA_v4k6TZfGV-55" value="评论所属" style="shape=rhombus;double=1;perimeter=rhombusPerimeter;whiteSpace=wrap;html=1;align=center;strokeColor=default;verticalAlign=middle;fontFamily=Helvetica;fontSize=10;fontColor=default;labelBackgroundColor=default;fillColor=default;fontStyle=1" parent="1" vertex="1">
          <mxGeometry x="840" y="420" width="80" height="40" as="geometry" />
        </mxCell>
        <mxCell id="Cig8O3BViA_v4k6TZfGV-56" value="用户ID" style="ellipse;whiteSpace=wrap;html=1;align=center;fontStyle=5;strokeColor=default;verticalAlign=middle;fontFamily=Helvetica;fontSize=11;fontColor=default;labelBackgroundColor=default;fillColor=default;" parent="1" vertex="1">
          <mxGeometry x="225" y="80" width="60" height="30" as="geometry" />
        </mxCell>
        <mxCell id="Cig8O3BViA_v4k6TZfGV-57" value="邮箱" style="ellipse;whiteSpace=wrap;html=1;align=center;strokeColor=default;verticalAlign=middle;fontFamily=Helvetica;fontSize=11;fontColor=default;labelBackgroundColor=default;fillColor=default;fontStyle=1" parent="1" vertex="1">
          <mxGeometry x="295" y="80" width="60" height="30" as="geometry" />
        </mxCell>
        <mxCell id="Cig8O3BViA_v4k6TZfGV-58" value="用户名" style="ellipse;whiteSpace=wrap;html=1;align=center;strokeColor=default;verticalAlign=middle;fontFamily=Helvetica;fontSize=11;fontColor=default;labelBackgroundColor=default;fillColor=default;fontStyle=1" parent="1" vertex="1">
          <mxGeometry x="365" y="80" width="60" height="30" as="geometry" />
        </mxCell>
        <mxCell id="Cig8O3BViA_v4k6TZfGV-59" value="注册时间" style="ellipse;whiteSpace=wrap;html=1;align=center;strokeColor=default;verticalAlign=middle;fontFamily=Helvetica;fontSize=11;fontColor=default;labelBackgroundColor=default;fillColor=default;fontStyle=1" parent="1" vertex="1">
          <mxGeometry x="435" y="80" width="60" height="30" as="geometry" />
        </mxCell>
        <mxCell id="Cig8O3BViA_v4k6TZfGV-60" value="头像&lt;span style=&quot;color: rgba(0, 0, 0, 0); font-family: monospace; font-size: 0px; text-align: start; text-wrap-mode: nowrap; background-color: rgb(236, 236, 236);&quot;&gt;%3CmxGraphModel%3E%3Croot%3E%3CmxCell%20id%3D%220%22%2F%3E%3CmxCell%20id%3D%221%22%20parent%3D%220%22%2F%3E%3CmxCell%20id%3D%222%22%20value%3D%22%E7%94%A8%E6%88%B7%E5%90%8D%22%20style%3D%22ellipse%3BwhiteSpace%3Dwrap%3Bhtml%3D1%3Balign%3Dcenter%3BstrokeColor%3Ddefault%3BverticalAlign%3Dmiddle%3BfontFamily%3DHelvetica%3BfontSize%3D11%3BfontColor%3Ddefault%3BlabelBackgroundColor%3Ddefault%3BfillColor%3Ddefault%3B%22%20vertex%3D%221%22%20parent%3D%221%22%3E%3CmxGeometry%20x%3D%22640%22%20y%3D%2240%22%20width%3D%2280%22%20height%3D%2240%22%20as%3D%22geometry%22%2F%3E%3C%2FmxCell%3E%3C%2Froot%3E%3C%2FmxGraphModel%3E&lt;/span&gt;" style="ellipse;whiteSpace=wrap;html=1;align=center;strokeColor=default;verticalAlign=middle;fontFamily=Helvetica;fontSize=11;fontColor=default;labelBackgroundColor=default;fillColor=default;fontStyle=1" parent="1" vertex="1">
          <mxGeometry x="505" y="80" width="60" height="30" as="geometry" />
        </mxCell>
        <mxCell id="Cig8O3BViA_v4k6TZfGV-61" value="经验值" style="ellipse;whiteSpace=wrap;html=1;align=center;strokeColor=default;verticalAlign=middle;fontFamily=Helvetica;fontSize=11;fontColor=default;labelBackgroundColor=default;fillColor=default;fontStyle=1" parent="1" vertex="1">
          <mxGeometry x="575" y="80" width="60" height="30" as="geometry" />
        </mxCell>
        <mxCell id="Cig8O3BViA_v4k6TZfGV-62" value="粉丝数" style="ellipse;whiteSpace=wrap;html=1;align=center;strokeColor=default;verticalAlign=middle;fontFamily=Helvetica;fontSize=11;fontColor=default;labelBackgroundColor=default;fillColor=default;fontStyle=1" parent="1" vertex="1">
          <mxGeometry x="715" y="80" width="60" height="30" as="geometry" />
        </mxCell>
        <mxCell id="Cig8O3BViA_v4k6TZfGV-63" value="关注数" style="ellipse;whiteSpace=wrap;html=1;align=center;strokeColor=default;verticalAlign=middle;fontFamily=Helvetica;fontSize=11;fontColor=default;labelBackgroundColor=default;fillColor=default;fontStyle=1" parent="1" vertex="1">
          <mxGeometry x="645" y="80" width="60" height="30" as="geometry" />
        </mxCell>
        <mxCell id="Cig8O3BViA_v4k6TZfGV-64" value="标题" style="ellipse;whiteSpace=wrap;html=1;align=center;strokeColor=default;verticalAlign=middle;fontFamily=Helvetica;fontSize=11;fontColor=default;labelBackgroundColor=default;fillColor=default;fontStyle=1" parent="1" vertex="1">
          <mxGeometry x="900" y="80" width="60" height="30" as="geometry" />
        </mxCell>
        <mxCell id="Cig8O3BViA_v4k6TZfGV-65" value="视频ID" style="ellipse;whiteSpace=wrap;html=1;align=center;fontStyle=5;strokeColor=default;verticalAlign=middle;fontFamily=Helvetica;fontSize=11;fontColor=default;labelBackgroundColor=default;fillColor=default;" parent="1" vertex="1">
          <mxGeometry x="830" y="80" width="60" height="30" as="geometry" />
        </mxCell>
        <mxCell id="Cig8O3BViA_v4k6TZfGV-66" value="播放量" style="ellipse;whiteSpace=wrap;html=1;align=center;strokeColor=default;verticalAlign=middle;fontFamily=Helvetica;fontSize=11;fontColor=default;labelBackgroundColor=default;fillColor=default;fontStyle=1" parent="1" vertex="1">
          <mxGeometry x="970" y="80" width="60" height="30" as="geometry" />
        </mxCell>
        <mxCell id="Cig8O3BViA_v4k6TZfGV-67" value="弹幕数" style="ellipse;whiteSpace=wrap;html=1;align=center;strokeColor=default;verticalAlign=middle;fontFamily=Helvetica;fontSize=11;fontColor=default;labelBackgroundColor=default;fillColor=default;fontStyle=1" parent="1" vertex="1">
          <mxGeometry x="1040" y="80" width="60" height="30" as="geometry" />
        </mxCell>
        <mxCell id="Cig8O3BViA_v4k6TZfGV-68" style="edgeStyle=orthogonalEdgeStyle;shape=connector;rounded=0;orthogonalLoop=1;jettySize=auto;html=1;exitX=0.5;exitY=1;exitDx=0;exitDy=0;entryX=0.5;entryY=0;entryDx=0;entryDy=0;strokeColor=default;align=center;verticalAlign=middle;fontFamily=Helvetica;fontSize=11;fontColor=default;labelBackgroundColor=default;startFill=0;endArrow=none;fontStyle=1" parent="1" source="Cig8O3BViA_v4k6TZfGV-69" target="Cig8O3BViA_v4k6TZfGV-16" edge="1">
          <mxGeometry relative="1" as="geometry">
            <Array as="points">
              <mxPoint x="1140" y="130" />
              <mxPoint x="860" y="130" />
            </Array>
          </mxGeometry>
        </mxCell>
        <mxCell id="Cig8O3BViA_v4k6TZfGV-69" value="视频时长" style="ellipse;whiteSpace=wrap;html=1;align=center;strokeColor=default;verticalAlign=middle;fontFamily=Helvetica;fontSize=11;fontColor=default;labelBackgroundColor=default;fillColor=default;fontStyle=1" parent="1" vertex="1">
          <mxGeometry x="1110" y="80" width="60" height="30" as="geometry" />
        </mxCell>
        <mxCell id="Cig8O3BViA_v4k6TZfGV-70" style="edgeStyle=orthogonalEdgeStyle;shape=connector;rounded=0;orthogonalLoop=1;jettySize=auto;html=1;exitX=0.5;exitY=1;exitDx=0;exitDy=0;entryX=0.5;entryY=0;entryDx=0;entryDy=0;strokeColor=default;align=center;verticalAlign=middle;fontFamily=Helvetica;fontSize=11;fontColor=default;labelBackgroundColor=default;startFill=0;endArrow=none;fontStyle=1" parent="1" source="Cig8O3BViA_v4k6TZfGV-71" target="Cig8O3BViA_v4k6TZfGV-16" edge="1">
          <mxGeometry relative="1" as="geometry">
            <Array as="points">
              <mxPoint x="1210" y="130" />
              <mxPoint x="860" y="130" />
            </Array>
          </mxGeometry>
        </mxCell>
        <mxCell id="Cig8O3BViA_v4k6TZfGV-71" value="视频状态" style="ellipse;whiteSpace=wrap;html=1;align=center;strokeColor=default;verticalAlign=middle;fontFamily=Helvetica;fontSize=11;fontColor=default;labelBackgroundColor=default;fillColor=default;fontStyle=1" parent="1" vertex="1">
          <mxGeometry x="1180.5" y="80" width="60" height="30" as="geometry" />
        </mxCell>
        <mxCell id="Cig8O3BViA_v4k6TZfGV-72" style="edgeStyle=orthogonalEdgeStyle;shape=connector;rounded=0;orthogonalLoop=1;jettySize=auto;html=1;exitX=0;exitY=0.5;exitDx=0;exitDy=0;entryX=1;entryY=0.5;entryDx=0;entryDy=0;strokeColor=default;align=center;verticalAlign=middle;fontFamily=Helvetica;fontSize=11;fontColor=default;labelBackgroundColor=default;startFill=0;endArrow=none;fontStyle=1" parent="1" source="Cig8O3BViA_v4k6TZfGV-73" target="Cig8O3BViA_v4k6TZfGV-19" edge="1">
          <mxGeometry relative="1" as="geometry" />
        </mxCell>
        <mxCell id="Cig8O3BViA_v4k6TZfGV-73" value="名称" style="ellipse;whiteSpace=wrap;html=1;align=center;strokeColor=default;verticalAlign=middle;fontFamily=Helvetica;fontSize=11;fontColor=default;labelBackgroundColor=default;fillColor=default;fontStyle=1" parent="1" vertex="1">
          <mxGeometry x="1100" y="310" width="60" height="30" as="geometry" />
        </mxCell>
        <mxCell id="Cig8O3BViA_v4k6TZfGV-74" style="edgeStyle=orthogonalEdgeStyle;shape=connector;rounded=0;orthogonalLoop=1;jettySize=auto;html=1;exitX=0;exitY=0.5;exitDx=0;exitDy=0;entryX=1;entryY=0.5;entryDx=0;entryDy=0;strokeColor=default;align=center;verticalAlign=middle;fontFamily=Helvetica;fontSize=11;fontColor=default;labelBackgroundColor=default;startFill=0;endArrow=none;fontStyle=1" parent="1" source="Cig8O3BViA_v4k6TZfGV-75" target="Cig8O3BViA_v4k6TZfGV-19" edge="1">
          <mxGeometry relative="1" as="geometry" />
        </mxCell>
        <mxCell id="Cig8O3BViA_v4k6TZfGV-75" value="分区ID" style="ellipse;whiteSpace=wrap;html=1;align=center;fontStyle=5;strokeColor=default;verticalAlign=middle;fontFamily=Helvetica;fontSize=11;fontColor=default;labelBackgroundColor=default;fillColor=default;" parent="1" vertex="1">
          <mxGeometry x="1100" y="260" width="60" height="30" as="geometry" />
        </mxCell>
        <mxCell id="Cig8O3BViA_v4k6TZfGV-76" style="edgeStyle=orthogonalEdgeStyle;shape=connector;rounded=0;orthogonalLoop=1;jettySize=auto;html=1;exitX=0;exitY=0.5;exitDx=0;exitDy=0;entryX=0.5;entryY=1;entryDx=0;entryDy=0;strokeColor=default;align=center;verticalAlign=middle;fontFamily=Helvetica;fontSize=11;fontColor=default;labelBackgroundColor=default;startFill=0;endArrow=none;fontStyle=1" parent="1" source="Cig8O3BViA_v4k6TZfGV-77" target="Cig8O3BViA_v4k6TZfGV-20" edge="1">
          <mxGeometry relative="1" as="geometry" />
        </mxCell>
        <mxCell id="Cig8O3BViA_v4k6TZfGV-77" value="消息ID" style="ellipse;whiteSpace=wrap;html=1;align=center;fontStyle=5;strokeColor=default;verticalAlign=middle;fontFamily=Helvetica;fontSize=11;fontColor=default;labelBackgroundColor=default;fillColor=default;" parent="1" vertex="1">
          <mxGeometry x="280" y="250" width="60" height="30" as="geometry" />
        </mxCell>
        <mxCell id="Cig8O3BViA_v4k6TZfGV-78" style="edgeStyle=orthogonalEdgeStyle;shape=connector;rounded=0;orthogonalLoop=1;jettySize=auto;html=1;exitX=0;exitY=0.5;exitDx=0;exitDy=0;entryX=0.5;entryY=1;entryDx=0;entryDy=0;strokeColor=default;align=center;verticalAlign=middle;fontFamily=Helvetica;fontSize=11;fontColor=default;labelBackgroundColor=default;startFill=0;endArrow=none;fontStyle=1" parent="1" source="Cig8O3BViA_v4k6TZfGV-79" target="Cig8O3BViA_v4k6TZfGV-20" edge="1">
          <mxGeometry relative="1" as="geometry" />
        </mxCell>
        <mxCell id="Cig8O3BViA_v4k6TZfGV-79" value="消息内容" style="ellipse;whiteSpace=wrap;html=1;align=center;strokeColor=default;verticalAlign=middle;fontFamily=Helvetica;fontSize=11;fontColor=default;labelBackgroundColor=default;fillColor=default;fontStyle=1" parent="1" vertex="1">
          <mxGeometry x="280" y="290" width="60" height="30" as="geometry" />
        </mxCell>
        <mxCell id="Cig8O3BViA_v4k6TZfGV-80" style="edgeStyle=orthogonalEdgeStyle;shape=connector;rounded=0;orthogonalLoop=1;jettySize=auto;html=1;exitX=0;exitY=0.5;exitDx=0;exitDy=0;entryX=0.5;entryY=1;entryDx=0;entryDy=0;strokeColor=default;align=center;verticalAlign=middle;fontFamily=Helvetica;fontSize=11;fontColor=default;labelBackgroundColor=default;startFill=0;endArrow=none;fontStyle=1" parent="1" source="Cig8O3BViA_v4k6TZfGV-81" target="Cig8O3BViA_v4k6TZfGV-20" edge="1">
          <mxGeometry relative="1" as="geometry" />
        </mxCell>
        <mxCell id="Cig8O3BViA_v4k6TZfGV-81" value="消息时间" style="ellipse;whiteSpace=wrap;html=1;align=center;strokeColor=default;verticalAlign=middle;fontFamily=Helvetica;fontSize=11;fontColor=default;labelBackgroundColor=default;fillColor=default;fontStyle=1" parent="1" vertex="1">
          <mxGeometry x="280" y="330" width="60" height="30" as="geometry" />
        </mxCell>
        <mxCell id="Cig8O3BViA_v4k6TZfGV-82" style="edgeStyle=orthogonalEdgeStyle;shape=connector;rounded=0;orthogonalLoop=1;jettySize=auto;html=1;exitX=0.5;exitY=0;exitDx=0;exitDy=0;entryX=0.5;entryY=1;entryDx=0;entryDy=0;strokeColor=default;align=center;verticalAlign=middle;fontFamily=Helvetica;fontSize=11;fontColor=default;labelBackgroundColor=default;startFill=0;endArrow=none;fontStyle=1" parent="1" source="Cig8O3BViA_v4k6TZfGV-83" target="Cig8O3BViA_v4k6TZfGV-49" edge="1">
          <mxGeometry relative="1" as="geometry">
            <Array as="points">
              <mxPoint x="575" y="310" />
              <mxPoint x="680" y="310" />
            </Array>
          </mxGeometry>
        </mxCell>
        <mxCell id="Cig8O3BViA_v4k6TZfGV-83" value="&lt;span style=&quot;border-bottom: 1px dotted&quot;&gt;弹幕ID&lt;/span&gt;" style="ellipse;whiteSpace=wrap;html=1;align=center;strokeColor=default;verticalAlign=middle;fontFamily=Helvetica;fontSize=11;fontColor=default;labelBackgroundColor=default;fillColor=default;fontStyle=1" parent="1" vertex="1">
          <mxGeometry x="545" y="320" width="60" height="30" as="geometry" />
        </mxCell>
        <mxCell id="Cig8O3BViA_v4k6TZfGV-84" style="edgeStyle=orthogonalEdgeStyle;shape=connector;rounded=0;orthogonalLoop=1;jettySize=auto;html=1;entryX=0.5;entryY=1;entryDx=0;entryDy=0;strokeColor=default;align=center;verticalAlign=middle;fontFamily=Helvetica;fontSize=11;fontColor=default;labelBackgroundColor=default;startFill=0;endArrow=none;fontStyle=1" parent="1" source="Cig8O3BViA_v4k6TZfGV-85" target="Cig8O3BViA_v4k6TZfGV-49" edge="1">
          <mxGeometry relative="1" as="geometry">
            <Array as="points">
              <mxPoint x="645" y="310" />
              <mxPoint x="680" y="310" />
            </Array>
          </mxGeometry>
        </mxCell>
        <mxCell id="Cig8O3BViA_v4k6TZfGV-85" value="发送时间" style="ellipse;whiteSpace=wrap;html=1;align=center;strokeColor=default;verticalAlign=middle;fontFamily=Helvetica;fontSize=11;fontColor=default;labelBackgroundColor=default;fillColor=default;fontStyle=1" parent="1" vertex="1">
          <mxGeometry x="615" y="320" width="60" height="30" as="geometry" />
        </mxCell>
        <mxCell id="Cig8O3BViA_v4k6TZfGV-86" style="edgeStyle=orthogonalEdgeStyle;shape=connector;rounded=0;orthogonalLoop=1;jettySize=auto;html=1;entryX=0.5;entryY=1;entryDx=0;entryDy=0;strokeColor=default;align=center;verticalAlign=middle;fontFamily=Helvetica;fontSize=11;fontColor=default;labelBackgroundColor=default;startFill=0;endArrow=none;fontStyle=1" parent="1" source="Cig8O3BViA_v4k6TZfGV-87" target="Cig8O3BViA_v4k6TZfGV-49" edge="1">
          <mxGeometry relative="1" as="geometry">
            <Array as="points">
              <mxPoint x="715" y="310" />
              <mxPoint x="680" y="310" />
            </Array>
          </mxGeometry>
        </mxCell>
        <mxCell id="Cig8O3BViA_v4k6TZfGV-87" value="内容" style="ellipse;whiteSpace=wrap;html=1;align=center;strokeColor=default;verticalAlign=middle;fontFamily=Helvetica;fontSize=11;fontColor=default;labelBackgroundColor=default;fillColor=default;fontStyle=1" parent="1" vertex="1">
          <mxGeometry x="685" y="320" width="60" height="30" as="geometry" />
        </mxCell>
        <mxCell id="Cig8O3BViA_v4k6TZfGV-88" style="edgeStyle=orthogonalEdgeStyle;shape=connector;rounded=0;orthogonalLoop=1;jettySize=auto;html=1;entryX=0.5;entryY=1;entryDx=0;entryDy=0;strokeColor=default;align=center;verticalAlign=middle;fontFamily=Helvetica;fontSize=11;fontColor=default;labelBackgroundColor=default;startFill=0;endArrow=none;exitX=0.5;exitY=0;exitDx=0;exitDy=0;fontStyle=1" parent="1" source="Cig8O3BViA_v4k6TZfGV-89" target="Cig8O3BViA_v4k6TZfGV-49" edge="1">
          <mxGeometry relative="1" as="geometry">
            <Array as="points">
              <mxPoint x="785" y="310" />
              <mxPoint x="680" y="310" />
            </Array>
          </mxGeometry>
        </mxCell>
        <mxCell id="Cig8O3BViA_v4k6TZfGV-89" value="时间戳" style="ellipse;whiteSpace=wrap;html=1;align=center;strokeColor=default;verticalAlign=middle;fontFamily=Helvetica;fontSize=11;fontColor=default;labelBackgroundColor=default;fillColor=default;fontStyle=1" parent="1" vertex="1">
          <mxGeometry x="755" y="320" width="60" height="30" as="geometry" />
        </mxCell>
        <mxCell id="Cig8O3BViA_v4k6TZfGV-90" style="edgeStyle=orthogonalEdgeStyle;shape=connector;rounded=0;orthogonalLoop=1;jettySize=auto;html=1;exitX=0.5;exitY=1;exitDx=0;exitDy=0;entryX=0.5;entryY=0;entryDx=0;entryDy=0;strokeColor=default;align=center;verticalAlign=middle;fontFamily=Helvetica;fontSize=11;fontColor=default;labelBackgroundColor=default;startFill=0;endArrow=none;fontStyle=1" parent="1" source="Cig8O3BViA_v4k6TZfGV-91" target="Cig8O3BViA_v4k6TZfGV-53" edge="1">
          <mxGeometry relative="1" as="geometry">
            <Array as="points">
              <mxPoint x="610" y="410" />
              <mxPoint x="680" y="410" />
            </Array>
          </mxGeometry>
        </mxCell>
        <mxCell id="Cig8O3BViA_v4k6TZfGV-91" value="&lt;span style=&quot;border-bottom: 1px dotted&quot;&gt;评论ID&lt;/span&gt;" style="ellipse;whiteSpace=wrap;html=1;align=center;strokeColor=default;verticalAlign=middle;fontFamily=Helvetica;fontSize=11;fontColor=default;labelBackgroundColor=default;fillColor=default;fontStyle=1" parent="1" vertex="1">
          <mxGeometry x="580" y="370" width="60" height="30" as="geometry" />
        </mxCell>
        <mxCell id="Cig8O3BViA_v4k6TZfGV-92" style="edgeStyle=orthogonalEdgeStyle;shape=connector;rounded=0;orthogonalLoop=1;jettySize=auto;html=1;entryX=0.5;entryY=0;entryDx=0;entryDy=0;strokeColor=default;align=center;verticalAlign=middle;fontFamily=Helvetica;fontSize=11;fontColor=default;labelBackgroundColor=default;startFill=0;endArrow=none;fontStyle=1" parent="1" source="Cig8O3BViA_v4k6TZfGV-93" target="Cig8O3BViA_v4k6TZfGV-53" edge="1">
          <mxGeometry relative="1" as="geometry" />
        </mxCell>
        <mxCell id="Cig8O3BViA_v4k6TZfGV-93" value="发布时间" style="ellipse;whiteSpace=wrap;html=1;align=center;strokeColor=default;verticalAlign=middle;fontFamily=Helvetica;fontSize=11;fontColor=default;labelBackgroundColor=default;fillColor=default;fontStyle=1" parent="1" vertex="1">
          <mxGeometry x="650" y="370" width="60" height="30" as="geometry" />
        </mxCell>
        <mxCell id="Cig8O3BViA_v4k6TZfGV-94" style="edgeStyle=orthogonalEdgeStyle;shape=connector;rounded=0;orthogonalLoop=1;jettySize=auto;html=1;entryX=0.5;entryY=0;entryDx=0;entryDy=0;strokeColor=default;align=center;verticalAlign=middle;fontFamily=Helvetica;fontSize=11;fontColor=default;labelBackgroundColor=default;startFill=0;endArrow=none;fontStyle=1" parent="1" source="Cig8O3BViA_v4k6TZfGV-95" target="Cig8O3BViA_v4k6TZfGV-53" edge="1">
          <mxGeometry relative="1" as="geometry">
            <Array as="points">
              <mxPoint x="750" y="410" />
              <mxPoint x="680" y="410" />
            </Array>
          </mxGeometry>
        </mxCell>
        <mxCell id="Cig8O3BViA_v4k6TZfGV-95" value="内容" style="ellipse;whiteSpace=wrap;html=1;align=center;strokeColor=default;verticalAlign=middle;fontFamily=Helvetica;fontSize=11;fontColor=default;labelBackgroundColor=default;fillColor=default;fontStyle=1" parent="1" vertex="1">
          <mxGeometry x="720" y="370" width="60" height="30" as="geometry" />
        </mxCell>
      </root>
    </mxGraphModel>
  </diagram>
</mxfile>
